# xmcd
#
# Track frame offsets: 
#        150
#        16575
#        26485
#        39202
#        53090
#        65847
#        84222
#        97272
#        109962
#        125097
#        142800
#        153822
#        170170
#        183370
#        202567
#        217030
#        233425
#        247580
#        262567
#        276445
#        288587
#
# Disc length: 4078 seconds
#
# Revision: 4
# Processed by: cddbd v1.5.2PL0 Copyright (c) Steve Scherf et al.
# Submitted via: ExactAudioCopy v1.3
#
DISCID=130fec15
DTITLE=Anne Murray - Special Collection
DYEAR=1990
DGENRE=Country
TTITLE0=You Needed Me
TTITLE1=Snowbird
TTITLE2=Destiny
TTITLE3=Danny's Song
TTITLE4=A Love Song
TTITLE5=You Won't See Me
TTITLE6=He Thinks I Still Care
TTITLE7=I Just Fall In Love Again
TTITLE8=Shadows In The Moonlight
TTITLE9=Broken Hearted Me
TTITLE10=Daydream Believer
TTITLE11=Time Don't Run Out On Me
TTITLE12=Just Another Woman In Love
TTITLE13=Now And Forever (You And Me)
TTITLE14=I'd Fall In Love Tonight
TTITLE15=If I Ever Fall In Love Again
TTITLE16=A Little Good News
TTITLE17=When I Fall In Love
TTITLE18=Another Sleepless Night
TTITLE19=Blessed Are The Believers
TTITLE20=Noboody Loves Me Like You Do
EXTD=
EXTT0=
EXTT1=
EXTT2=
EXTT3=
EXTT4=
EXTT5=
EXTT6=
EXTT7=
EXTT8=
EXTT9=
EXTT10=
EXTT11=
EXTT12=
EXTT13=
EXTT14=
EXTT15=
EXTT16=
EXTT17=
EXTT18=
EXTT19=
EXTT20=
PLAYORDER=
